# xmcd
#
# Track frame offsets:
# 150
# 24360
# 37620
# 49798
# 63860
# 83532
# 98785
# 111441
# 134204
# 146022
# 160875
# 175759
# 189816
# 201323
# 211598
# 229650
# 248685
# 269006
# 288392
# 315115
#
# Disc length: 4496 seconds
#
#
# Revision: 0
# Processed by: cddbd v1.5.1PL0 Copyright (c) Steve Scherf et al.
# Submitted via: FreeRIP 2.60 
#
DISCID=0b118e14
DTITLE=Manelisti - Manele CD1
DYEAR=2004
DGENRE=R&B
TTITLE0=Sorinel Copilu de Aur - Sunt Smecher Nr.1
TTITLE1=N.Guta cu Sorinel Copilu de Aur - Cine-i Seful Greilor
TTITLE2=Sorinel Pustiu - Un Strop De Fericire
TTITLE3=N.Guta cu Liviu Pustiu - Un Strop De Fericire
TTITLE4=Liviu Pustiu - Toate Gagicutele
TTITLE5=Liviu Pustiu cu Play AJ - Hai Ciki Ciki
TTITLE6=Adi De La Valcea - Ce Femeie Smecherita
TTITLE7=Casanova - Lacrimi
TTITLE8=Costel Ciofu - Nu Mai Pot Iubi
TTITLE9=N.Guta cu Liviu Pustiu - Chipul Tau
TTITLE10=Nea' Kalu - Ma Iubeste Lumea
TTITLE11=Florin Peste cu Play AJ - Eu Sunt Mare Vagabond
TTITLE12=Claudia - Tu Esti Tot Ce Imi Doresc
TTITLE13=Catalin Arabu - Nu Pot Sa Cred
TTITLE14=Guta cu Larisa - Uita-te In Ochii Mei
TTITLE15=Adrian Copilu Minune cu Nea' Kalu - Fac Cu Cap
TTITLE16=N.Guta - Femeie Plina De Aur
TTITLE17=Kamarad cu Play AJ - La Femei
TTITLE18=Kamarad cu Play AJ - Ce Tipa Misto
TTITLE19=Sorinel Pustiu - Poti Sa Fii Frumos Cat Zece
EXTD=Manele CD1
EXTT0=Manele CD 1
EXTT1=Manele CD 1
EXTT2=Manele CD 1
EXTT3=Manele CD 1
EXTT4=Manele CD 1
EXTT5=Manele CD 1
EXTT6=Manele CD 1
EXTT7=Manele CD 1
EXTT8=Manele CD 1
EXTT9=Manele CD 1
EXTT10=Manele CD 1
EXTT11=Manele CD 1
EXTT12=Manele CD 1
EXTT13=Manele CD 1
EXTT14=Manele CD 1
EXTT15=Manele CD 1
EXTT16=Manele CD 1
EXTT17=Manele CD 1
EXTT18=Manele CD 1
EXTT19=Manele CD 1
PLAYORDER=
